<svg width="14" height="14" viewBox="0 0 14 14" fill="none" xmlns="http://www.w3.org/2000/svg">
<path d="M13.7499 6.99995C13.7499 7.14913 13.6907 7.29221 13.5852 7.39769C13.4797 7.50318 13.3366 7.56245 13.1874 7.56245H6.99995C6.85076 7.56245 6.70769 7.50318 6.6022 7.39769C6.49671 7.29221 6.43745 7.14913 6.43745 6.99995C6.43745 6.85076 6.49671 6.70769 6.6022 6.6022C6.70769 6.49671 6.85076 6.43745 6.99995 6.43745H13.1874C13.3366 6.43745 13.4797 6.49671 13.5852 6.6022C13.6907 6.70769 13.7499 6.85076 13.7499 6.99995ZM6.99995 3.06245H13.1874C13.3366 3.06245 13.4797 3.00318 13.5852 2.89769C13.6907 2.7922 13.7499 2.64913 13.7499 2.49995C13.7499 2.35076 13.6907 2.20769 13.5852 2.1022C13.4797 1.99671 13.3366 1.93745 13.1874 1.93745H6.99995C6.85076 1.93745 6.70769 1.99671 6.6022 2.1022C6.49671 2.20769 6.43745 2.35076 6.43745 2.49995C6.43745 2.64913 6.49671 2.7922 6.6022 2.89769C6.70769 3.00318 6.85076 3.06245 6.99995 3.06245ZM13.1874 10.9374H6.99995C6.85076 10.9374 6.70769 10.9967 6.6022 11.1022C6.49671 11.2077 6.43745 11.3508 6.43745 11.4999C6.43745 11.6491 6.49671 11.7922 6.6022 11.8977C6.70769 12.0032 6.85076 12.0624 6.99995 12.0624H13.1874C13.3366 12.0624 13.4797 12.0032 13.5852 11.8977C13.6907 11.7922 13.7499 11.6491 13.7499 11.4999C13.7499 11.3508 13.6907 11.2077 13.5852 11.1022C13.4797 10.9967 13.3366 10.9374 13.1874 10.9374ZM3.78948 0.976978L1.93745 2.82971L1.21042 2.10198C1.10487 1.99643 0.961714 1.93713 0.812447 1.93713C0.663179 1.93713 0.520026 1.99643 0.414478 2.10198C0.30893 2.20753 0.249634 2.35068 0.249634 2.49995C0.249634 2.64921 0.30893 2.79237 0.414478 2.89792L1.53948 4.02292C1.59172 4.07521 1.65376 4.1167 1.72204 4.14501C1.79033 4.17332 1.86353 4.18789 1.93745 4.18789C2.01137 4.18789 2.08456 4.17332 2.15285 4.14501C2.22114 4.1167 2.28317 4.07521 2.33542 4.02292L4.58542 1.77292C4.69096 1.66737 4.75026 1.52421 4.75026 1.37495C4.75026 1.22568 4.69096 1.08253 4.58542 0.976978C4.47987 0.87143 4.33671 0.812134 4.18745 0.812134C4.03818 0.812134 3.89503 0.87143 3.78948 0.976978ZM3.78948 5.47698L1.93745 7.32971L1.21042 6.60198C1.10487 6.49643 0.961714 6.43713 0.812447 6.43713C0.663179 6.43713 0.520026 6.49643 0.414478 6.60198C0.30893 6.70753 0.249634 6.85068 0.249634 6.99995C0.249634 7.07386 0.264191 7.14704 0.292475 7.21533C0.320759 7.28361 0.362216 7.34565 0.414478 7.39792L1.53948 8.52292C1.59172 8.57521 1.65376 8.6167 1.72204 8.64501C1.79033 8.67332 1.86353 8.68789 1.93745 8.68789C2.01137 8.68789 2.08456 8.67332 2.15285 8.64501C2.22114 8.6167 2.28317 8.57521 2.33542 8.52292L4.58542 6.27292C4.69096 6.16737 4.75026 6.02421 4.75026 5.87495C4.75026 5.72568 4.69096 5.58253 4.58542 5.47698C4.47987 5.37143 4.33671 5.31213 4.18745 5.31213C4.03818 5.31213 3.89503 5.37143 3.78948 5.47698ZM3.78948 9.97698L1.93745 11.8297L1.21042 11.102C1.15815 11.0497 1.09611 11.0083 1.02783 10.98C0.959542 10.9517 0.886356 10.9371 0.812447 10.9371C0.738537 10.9371 0.665351 10.9517 0.597067 10.98C0.528784 11.0083 0.46674 11.0497 0.414478 11.102C0.362216 11.1542 0.320759 11.2163 0.292475 11.2846C0.264191 11.3529 0.249634 11.426 0.249634 11.4999C0.249634 11.5739 0.264191 11.647 0.292475 11.7153C0.320759 11.7836 0.362216 11.8457 0.414478 11.8979L1.53948 13.0229C1.59172 13.0752 1.65376 13.1167 1.72204 13.145C1.79033 13.1733 1.86353 13.1879 1.93745 13.1879C2.01137 13.1879 2.08456 13.1733 2.15285 13.145C2.22114 13.1167 2.28317 13.0752 2.33542 13.0229L4.58542 10.7729C4.69096 10.6674 4.75026 10.5242 4.75026 10.3749C4.75026 10.2257 4.69096 10.0825 4.58542 9.97698C4.47987 9.87143 4.33671 9.81213 4.18745 9.81213C4.03818 9.81213 3.89503 9.87143 3.78948 9.97698Z" fill="#B8B9BD"/>
</svg>
