<svg width="14" height="18" viewBox="0 0 14 18" fill="none" xmlns="http://www.w3.org/2000/svg">
<path d="M13.1727 8.30883C13.1514 8.21867 13.1082 8.13517 13.0469 8.06575C12.9855 7.99632 12.908 7.94311 12.8212 7.91086L8.77047 6.3914L9.80125 1.23539C9.82459 1.11559 9.80833 0.991451 9.75493 0.881703C9.70153 0.771956 9.61388 0.682554 9.50522 0.626989C9.39655 0.571425 9.27275 0.552712 9.15252 0.573675C9.03228 0.594638 8.92212 0.65414 8.83867 0.743201L0.963672 9.1807C0.899712 9.2481 0.853443 9.33028 0.828998 9.41992C0.804553 9.50956 0.802694 9.60387 0.823586 9.6944C0.844479 9.78493 0.887472 9.86888 0.948726 9.93875C1.00998 10.0086 1.08759 10.0622 1.17461 10.0948L5.22672 11.6142L4.19875 16.7646C4.17541 16.8844 4.19167 17.0085 4.24507 17.1183C4.29847 17.228 4.38612 17.3174 4.49478 17.373C4.60345 17.4286 4.72725 17.4473 4.84748 17.4263C4.96772 17.4054 5.07788 17.3459 5.16133 17.2568L13.0363 8.81929C13.0991 8.75189 13.1444 8.67008 13.1682 8.58107C13.192 8.49206 13.1935 8.39858 13.1727 8.30883ZM5.69008 15.0469L6.42625 11.3639C6.4526 11.2333 6.43172 11.0976 6.36734 10.9809C6.30295 10.8642 6.19924 10.7742 6.07469 10.7269L2.35938 9.33117L8.30922 2.95664L7.57375 6.63961C7.5474 6.77023 7.56828 6.90596 7.63266 7.02262C7.69705 7.13928 7.80076 7.2293 7.92531 7.27664L11.6378 8.66883L5.69008 15.0469Z" fill="white"/>
</svg>
